<?xml version="1.0" encoding="UTF-8" standalone="no"?>
<!-- Created with Inkscape (http://www.inkscape.org/) -->

<svg
   width="75.551735"
   height="50"
   viewBox="0 0 19.98973 13.229167"
   version="1.1"
   id="svg1"
   xml:space="preserve"
   xmlns:xlink="http://www.w3.org/1999/xlink"
   xmlns="http://www.w3.org/2000/svg"
   xmlns:svg="http://www.w3.org/2000/svg"><defs
     id="defs1"><color-profile
       name="sRGB"
       xlink:href="file:///app/share/color/icc/colord/sRGB.icc"
       id="color-profile3" /><color-profile
       name="sRGB"
       xlink:href="file:///app/share/color/icc/colord/sRGB.icc"
       id="color-profile4" /></defs><g
     id="layer1"
     transform="translate(-52.916664,-26.458332)"><g
       id="layer1-7"
       transform="matrix(0.18887935,0,0,0.18887935,40.423083,8.0857497)"
       style="stroke-width:0.8"><path
         id="path1-5"
         style="fill:#fffffb;fill-opacity:1;stroke:none;stroke-width:16.4274;stroke-linecap:square;stroke-miterlimit:4;stroke-dasharray:none;stroke-opacity:1"
         d="m 101.16785,97.27153 -28.268078,28.2662 v 6.3e-4 l 6.75394,6.7533 25.469338,-25.46934 h 27.87888 l 25.46874,25.46934 -25.46874,25.46939 h -27.87888 l -25.469338,-25.46939 -6.75394,6.75337 28.268078,28.2668 h 35.7918 l 28.26558,-28.2662 -6.75395,-6.75397 6.75395,-6.75393 -28.26558,-28.2662 z m 64.05738,28.2662 v 13.5079 l 6.75394,-6.75397 z m -92.325458,13.5073 v -13.50668 l -6.75394,6.75331 z m 11.38443,-37.40973 c -0.61031,0 -1.22047,0.2337 -1.68817,0.70136 -0.93532,0.93537 -0.93532,2.44103 0,3.37637 0.93539,0.93534 2.44102,0.93534 3.37638,0 0.93533,-0.93534 0.93533,-2.441 0,-3.37637 -0.46769,-0.46766 -1.07786,-0.70136 -1.68821,-0.70136 z m 69.559048,0 c -0.61031,0 -1.22047,0.2337 -1.68815,0.70136 -0.93537,0.93537 -0.93537,2.44103 0,3.37637 0.93535,0.93534 2.44099,0.93534 3.37635,0 0.93532,-0.93534 0.93532,-2.441 0,-3.37637 -0.46768,-0.46766 -1.07782,-0.70136 -1.6882,-0.70136 z m -79.689318,10.12967 c -0.61032,0 -1.22049,0.23432 -1.68818,0.702 -0.93533,0.93536 -0.93533,2.441 0,3.37636 0.93538,0.93536 2.44162,0.93536 3.37699,0 0.93535,-0.93536 0.93535,-2.441 0,-3.37636 -0.46767,-0.46768 -1.07847,-0.702 -1.68881,-0.702 z m 89.819618,0 c -0.61034,0 -1.2211,0.23432 -1.68881,0.702 -0.93533,0.93536 -0.93533,2.441 0,3.37636 0.93534,0.93536 2.44163,0.93536 3.37699,0 0.93533,-0.93536 0.93533,-2.441 0,-3.37636 -0.46768,-0.46768 -1.07783,-0.702 -1.68818,-0.702 z m -44.91106,4.60936 c -4.90527,0 -9.29231,2.21877 -12.21227,5.70746 -2.31322,2.76377 -3.7057,6.32452 -3.7057,10.21051 0,8.79125 7.12672,15.91797 15.91797,15.91797 8.79126,2e-5 15.918,-7.12671 15.918,-15.91797 0,-8.79126 -7.12674,-15.91797 -15.918,-15.91797 z" /></g></g></svg>
