<?xml version="1.0" encoding="UTF-8" standalone="no"?>
<!-- Created with Inkscape (http://www.inkscape.org/) -->

<svg
   width="15"
   height="15"
   viewBox="0 0 3.9687499 3.96875"
   version="1.1"
   id="svg1"
   xml:space="preserve"
   xmlns:xlink="http://www.w3.org/1999/xlink"
   xmlns="http://www.w3.org/2000/svg"
   xmlns:svg="http://www.w3.org/2000/svg"><defs
     id="defs1"><color-profile
       name="sRGB"
       xlink:href="file:///app/share/color/icc/colord/sRGB.icc"
       id="color-profile3" /><color-profile
       name="sRGB"
       xlink:href="file:///app/share/color/icc/colord/sRGB.icc"
       id="color-profile4" /></defs><g
     id="layer1"
     transform="translate(-407.36316,-31.088543)"><g
       style="fill:#e3e3e3;stroke-width:1.06667"
       id="g33"
       transform="matrix(0.00620117,0,0,0.00620117,406.37097,36.049478)"><path
         d="M 183.5,-183.5 Q 160,-207 160,-240 q 0,-33 23.5,-56.5 23.5,-23.5 56.5,-23.5 33,0 56.5,23.5 23.5,23.5 23.5,56.5 0,33 -23.5,56.5 -23.5,23.5 -56.5,23.5 -33,0 -56.5,-23.5 z m 240,0 Q 400,-207 400,-240 q 0,-33 23.5,-56.5 23.5,-23.5 56.5,-23.5 33,0 56.5,23.5 23.5,23.5 23.5,56.5 0,33 -23.5,56.5 -23.5,23.5 -56.5,23.5 -33,0 -56.5,-23.5 z m 240,0 Q 640,-207 640,-240 q 0,-33 23.5,-56.5 23.5,-23.5 56.5,-23.5 33,0 56.5,23.5 23.5,23.5 23.5,56.5 0,33 -23.5,56.5 -23.5,23.5 -56.5,23.5 -33,0 -56.5,-23.5 z m -480,-240 Q 160,-447 160,-480 q 0,-33 23.5,-56.5 23.5,-23.5 56.5,-23.5 33,0 56.5,23.5 23.5,23.5 23.5,56.5 0,33 -23.5,56.5 -23.5,23.5 -56.5,23.5 -33,0 -56.5,-23.5 z m 240,0 Q 400,-447 400,-480 q 0,-33 23.5,-56.5 23.5,-23.5 56.5,-23.5 33,0 56.5,23.5 23.5,23.5 23.5,56.5 0,33 -23.5,56.5 -23.5,23.5 -56.5,23.5 -33,0 -56.5,-23.5 z m 240,0 Q 640,-447 640,-480 q 0,-33 23.5,-56.5 23.5,-23.5 56.5,-23.5 33,0 56.5,23.5 23.5,23.5 23.5,56.5 0,33 -23.5,56.5 -23.5,23.5 -56.5,23.5 -33,0 -56.5,-23.5 z m -480,-240 Q 160,-687 160,-720 q 0,-33 23.5,-56.5 23.5,-23.5 56.5,-23.5 33,0 56.5,23.5 23.5,23.5 23.5,56.5 0,33 -23.5,56.5 -23.5,23.5 -56.5,23.5 -33,0 -56.5,-23.5 z m 240,0 Q 400,-687 400,-720 q 0,-33 23.5,-56.5 23.5,-23.5 56.5,-23.5 33,0 56.5,23.5 23.5,23.5 23.5,56.5 0,33 -23.5,56.5 -23.5,23.5 -56.5,23.5 -33,0 -56.5,-23.5 z m 240,0 Q 640,-687 640,-720 q 0,-33 23.5,-56.5 23.5,-23.5 56.5,-23.5 33,0 56.5,23.5 23.5,23.5 23.5,56.5 0,33 -23.5,56.5 -23.5,23.5 -56.5,23.5 -33,0 -56.5,-23.5 z"
         id="path1"
         style="stroke-width:1.06667" /></g></g></svg>
