<?xml version="1.0" encoding="UTF-8" standalone="no"?>
<!-- Created with Inkscape (http://www.inkscape.org/) -->

<svg
   width="283.31903"
   height="50"
   viewBox="0 0 74.961493 13.229167"
   version="1.1"
   id="svg1"
   xml:space="preserve"
   sodipodi:docname="icone_logo.svg"
   inkscape:version="1.3 (0e150ed6c4, 2023-07-21)"
   xmlns:inkscape="http://www.inkscape.org/namespaces/inkscape"
   xmlns:sodipodi="http://sodipodi.sourceforge.net/DTD/sodipodi-0.dtd"
   xmlns:xlink="http://www.w3.org/1999/xlink"
   xmlns="http://www.w3.org/2000/svg"
   xmlns:svg="http://www.w3.org/2000/svg"><sodipodi:namedview
     id="namedview2"
     pagecolor="#ffffff"
     bordercolor="#000000"
     borderopacity="0.25"
     inkscape:showpageshadow="2"
     inkscape:pageopacity="0.0"
     inkscape:pagecheckerboard="0"
     inkscape:deskcolor="#d1d1d1"
     inkscape:zoom="1.0132936"
     inkscape:cx="160.86157"
     inkscape:cy="93.753679"
     inkscape:window-width="1366"
     inkscape:window-height="715"
     inkscape:window-x="270"
     inkscape:window-y="1072"
     inkscape:window-maximized="1"
     inkscape:current-layer="svg1" /><defs
     id="defs1"><color-profile
       name="sRGB"
       xlink:href="file:///app/share/color/icc/colord/sRGB.icc"
       id="color-profile3" /><color-profile
       name="sRGB"
       xlink:href="file:///app/share/color/icc/colord/sRGB.icc"
       id="color-profile4" /></defs><g
     id="layer1"
     transform="translate(-52.916664,-26.458332)"
     style="fill:#ffffff;fill-opacity:1"><g
       id="layer1-7"
       transform="matrix(0.18887935,0,0,0.18887935,40.423083,8.0857497)"
       style="stroke-width:0.8;fill:#ffffff;fill-opacity:1"><path
         id="path1-5"
         style="fill:#ffffff;fill-opacity:1;stroke:none;stroke-width:16.4274;stroke-linecap:square;stroke-miterlimit:4;stroke-dasharray:none;stroke-opacity:1"
         d="m 101.16785,97.27153 -28.268078,28.2662 v 6.3e-4 l 6.75394,6.7533 25.469338,-25.46934 h 27.87888 l 25.46874,25.46934 -25.46874,25.46939 h -27.87888 l -25.469338,-25.46939 -6.75394,6.75337 28.268078,28.2668 h 35.7918 l 28.26558,-28.2662 -6.75395,-6.75397 6.75395,-6.75393 -28.26558,-28.2662 z m 64.05738,28.2662 v 13.5079 l 6.75394,-6.75397 z m -92.325458,13.5073 v -13.50668 l -6.75394,6.75331 z m 11.38443,-37.40973 c -0.61031,0 -1.22047,0.2337 -1.68817,0.70136 -0.93532,0.93537 -0.93532,2.44103 0,3.37637 0.93539,0.93534 2.44102,0.93534 3.37638,0 0.93533,-0.93534 0.93533,-2.441 0,-3.37637 -0.46769,-0.46766 -1.07786,-0.70136 -1.68821,-0.70136 z m 69.559048,0 c -0.61031,0 -1.22047,0.2337 -1.68815,0.70136 -0.93537,0.93537 -0.93537,2.44103 0,3.37637 0.93535,0.93534 2.44099,0.93534 3.37635,0 0.93532,-0.93534 0.93532,-2.441 0,-3.37637 -0.46768,-0.46766 -1.07782,-0.70136 -1.6882,-0.70136 z m -79.689318,10.12967 c -0.61032,0 -1.22049,0.23432 -1.68818,0.702 -0.93533,0.93536 -0.93533,2.441 0,3.37636 0.93538,0.93536 2.44162,0.93536 3.37699,0 0.93535,-0.93536 0.93535,-2.441 0,-3.37636 -0.46767,-0.46768 -1.07847,-0.702 -1.68881,-0.702 z m 89.819618,0 c -0.61034,0 -1.2211,0.23432 -1.68881,0.702 -0.93533,0.93536 -0.93533,2.441 0,3.37636 0.93534,0.93536 2.44163,0.93536 3.37699,0 0.93533,-0.93536 0.93533,-2.441 0,-3.37636 -0.46768,-0.46768 -1.07783,-0.702 -1.68818,-0.702 z m -44.91106,4.60936 a 15.917967,15.917967 0 0 0 -15.91797,15.91797 15.917967,15.917967 0 0 0 15.91797,15.91797 15.917967,15.917967 0 0 0 15.918,-15.91797 15.917967,15.917967 0 0 0 -15.918,-15.91797 z" /><path
         d="m 221.9137,139.98491 3.03396,-3.85264 13.29161,10.25766 -3.03395,3.87672 z m 0.55382,10.06503 q -3.73224,0 -6.57357,-1.58922 -2.84132,-1.61329 -4.40645,-4.52685 -1.56514,-2.93764 -1.56514,-6.79028 v -9.92055 q 0,-3.85264 1.56514,-6.7662 1.56513,-2.93764 4.40645,-4.52685 2.84133,-1.6133 6.57357,-1.6133 3.73225,0 6.57357,1.6133 2.84132,1.58921 4.40646,4.52685 1.56513,2.91356 1.56513,6.7662 v 9.92055 q 0,3.85264 -1.56513,6.79028 -1.56514,2.91356 -4.40646,4.52685 -2.84132,1.58922 -6.57357,1.58922 z m 0,-5.70673 q 1.97448,0 3.46738,-0.86684 1.51698,-0.86685 2.33566,-2.45606 0.81869,-1.61329 0.81869,-3.70817 v -10.25765 q 0,-2.09488 -0.81869,-3.68409 -0.81868,-1.61329 -2.33566,-2.48014 -1.4929,-0.86684 -3.46738,-0.86684 -1.97448,0 -3.49145,0.86684 -1.4929,0.86685 -2.31159,2.48014 -0.81868,1.58921 -0.81868,3.68409 v 10.25765 q 0,2.09488 0.81868,3.70817 0.81869,1.58921 2.31159,2.45606 1.51697,0.86684 3.49145,0.86684 z m 35.27288,5.70673 q -3.94896,0 -6.7662,-1.51698 -2.81724,-1.54106 -4.28606,-4.45462 -1.46882,-2.93764 -1.46882,-7.05515 v -22.34531 h 5.75488 v 22.51387 q 0,3.41922 1.75777,5.29738 1.78184,1.87816 5.00843,1.87816 3.25067,0 5.03251,-1.87816 1.78185,-1.87816 1.78185,-5.29738 v -22.51387 h 5.75488 v 22.34531 q 0,4.11751 -1.4929,7.05515 -1.46882,2.91356 -4.28606,4.45462 -2.81724,1.51698 -6.79028,1.51698 z m 31.25169,-35.37206 h 4.18974 l 13.14714,35.01087 h -6.1883 l -9.05371,-26.07756 -9.0537,26.07756 h -6.18831 z m -6.95883,22.85097 h 18.42043 v 5.5141 h -18.42043 z m 34.14117,-7.80159 h 12.06358 q 1.20395,0 2.11895,-0.5779 0.93908,-0.60197 1.44474,-1.68553 0.50566,-1.08355 0.52974,-2.5283 v 0 q 0,-1.42066 -0.50566,-2.50421 -0.50566,-1.08356 -1.44474,-1.66145 -0.915,-0.60198 -2.14303,-0.60198 h -12.06358 v -5.51409 h 12.23213 q 2.96172,0 5.20107,1.27619 2.23934,1.27618 3.46737,3.61185 1.25211,2.33566 1.25211,5.39369 v 0 q 0,3.08212 -1.25211,5.41778 -1.22803,2.33566 -3.49145,3.61185 -2.23935,1.27619 -5.17699,1.27619 H 316.17443 Z M 313.7906,114.6538 h 5.75489 v 35.03495 h -5.75489 z m 10.83556,19.50399 5.97159,-1.10763 9.19818,16.63859 h -6.91067 z m 28.86787,-16.61451 h 5.7308 v 32.14547 h -5.7308 z m -9.72792,-2.8654 h 25.18664 v 5.51409 h -25.18664 z m 52.73015,5.08067 -14.83266,24.41611 h 15.31424 v 5.51409 h -22.249 v -5.08067 l 14.88083,-24.41611 h -14.4474 v -5.51409 h 21.33399 z m 20.70508,30.29139 q -3.94896,0 -6.7662,-1.51698 -2.81725,-1.54106 -4.28606,-4.45462 -1.46882,-2.93764 -1.46882,-7.05515 v -22.34531 h 5.75488 v 22.51387 q 0,3.41922 1.75777,5.29738 1.78184,1.87816 5.00843,1.87816 3.25066,0 5.03251,-1.87816 1.78185,-1.87816 1.78185,-5.29738 v -22.51387 h 5.75488 v 22.34531 q 0,4.11751 -1.4929,7.05515 -1.46882,2.91356 -4.28606,4.45462 -2.81725,1.51698 -6.79028,1.51698 z m 32.72051,0 q -2.52829,0 -4.86395,-0.48158 -2.31159,-0.50566 -4.3583,-1.46882 -2.02264,-0.96316 -3.70817,-2.38382 v 0 l 3.05803,-4.59909 v 0 q 2.02264,1.7096 4.52686,2.60053 2.52829,0.86684 5.34553,0.86684 3.51554,0 5.44186,-1.25211 1.9504,-1.2521 1.9504,-3.53961 v -0.0241 q 0,-1.61329 -0.86684,-2.55237 -0.86685,-0.96316 -2.26343,-1.39659 -1.39658,-0.4575 -3.58777,-0.84276 -0.0722,-0.0241 -0.14448,-0.0241 -0.0722,0 -0.14447,-0.0241 l -0.43342,-0.0722 q -3.51554,-0.57789 -5.77896,-1.3725 -2.26343,-0.79461 -3.85264,-2.84132 -1.58922,-2.04672 -1.58922,-5.80304 v -0.0241 q 0,-3.3229 1.4929,-5.68265 1.4929,-2.35974 4.33422,-3.58777 2.84132,-1.22803 6.83844,-1.22803 1.87816,0 3.75632,0.43343 1.90224,0.40934 3.70817,1.22803 1.83,0.7946 3.53961,1.99855 v 0 l -2.79316,4.74357 v 0 q -2.02264,-1.44474 -4.11751,-2.19119 -2.09488,-0.74645 -4.09343,-0.74645 -3.32291,0 -5.15291,1.22803 -1.80593,1.20395 -1.80593,3.41922 v 0.0241 q 0,1.66146 0.93909,2.62462 0.93908,0.96316 2.33566,1.42066 1.42066,0.43342 3.94896,0.93908 0.0963,0.0241 0.16855,0.0482 0.0963,0 0.19263,0.0241 0.1204,0.0241 0.26487,0.0481 0.14447,0.0241 0.26487,0.0482 3.25066,0.65013 5.41778,1.56514 2.19118,0.915 3.66,2.93764 1.46882,2.02263 1.46882,5.51409 v 0.0482 q 0,3.27474 -1.54105,5.6104 -1.54106,2.33567 -4.4787,3.5637 -2.93764,1.20395 -7.07923,1.20395 z"
         id="text4"
         style="font-weight:600;font-size:49.3138px;line-height:1;font-family:Bahnschrift;-inkscape-font-specification:'Bahnschrift Semi-Bold';letter-spacing:2.64583px;fill:#ffffff;stroke-width:1.34492;fill-opacity:1"
         aria-label="QUARTZUS" /></g></g></svg>
